<svg xmlns="http://www.w3.org/2000/svg" width="376" height="376" viewBox="0 0 282 282"><path fill="#fff" d="M135.41 28.49c16.44-3.28 33.79 8.24 37.93 24.31 2.85 11.51.86 25.09-8 33.55-12.1 12.81-34.87 13.17-47.18.48-11.91-11.05-13.39-30.83-4.49-44.15 4.88-7.44 12.99-12.66 21.74-14.19m1.89 10.81c-16.76 2.62-24.02 25.24-13.57 37.92 8.59 10.65 26.83 10.46 35.33-.19 7.53-9.83 5.46-25.26-4.02-33.08-4.9-3.95-11.53-5.81-17.74-4.65ZM94.55 105.49c9.71-2.81 21.6-2.8 29.74 3.93 4.47 6.32 10.97 12.1 10.94 20.52.02 35.76.2 71.54-.05 107.3-2.45.01-4.9.02-7.35.02-.56-8.19.35-16.41-.38-24.59-1.94 8.12.5 16.55-1.31 24.71-.27-8.04 0-16.09-.13-24.14-17.04-3.28-32.97-12.97-42.82-27.38-8.92-12.7-12.82-28.45-12.21-43.86-.38-15.35 8.26-31.77 23.57-36.51m-10.82 25.2c-5.8 21.47 1.46 46.44 19.31 60.19 6.68 5.48 14.71 8.95 22.94 11.36.07-23.42.03-46.85.03-70.28-.09-9.74-9.45-17.8-19.05-17.16-10.33-.99-20.5 5.85-23.23 15.89ZM150.47 117.51c9.7-18.02 37.64-17.76 50.82-3.8 7.56 8.02 10.13 19.55 9.72 30.29.52 14.32-3.24 28.87-11.13 40.88-9.7 14.82-25.84 24.82-43.07 28.38-.39 8.42.75 17.04-.5 25.34-.81-8.64.57-17.4-.77-25.99-.65 8.2.18 16.44-.38 24.65-2.77.04-5.54.04-8.31-.02-.32-33.75.01-67.5-.17-101.25-.27-6.44 2.86-12.23 3.79-18.48m9.36 5.48c-3.98 5.91-2.99 13.28-3.07 20.01-.03 19.71.19 39.43-.05 59.14 22.61-5.65 41.07-25.63 43.25-49.07.78-11.29 1.13-24.73-7.91-33.07-9.03-7.49-25.47-7.65-32.22 2.99Z"/><path fill="#fff" d="M135.23 129.94c.03-8.42-6.47-14.2-10.94-20.52 7.35 5.02 12.41 13.59 12.7 22.54-.01 35.47-.01 70.93-.01 106.39-3.66-.06-7.33-.06-10.99-.02l.15-.95c1.81-8.16-.63-16.59 1.31-24.71.73 8.18-.18 16.4.38 24.59 2.45 0 4.9-.01 7.35-.02.25-35.76.07-71.54.05-107.3ZM150.47 117.51c-.93 6.25-4.06 12.04-3.79 18.48.18 33.75-.15 67.5.17 101.25 2.77.06 5.54.06 8.31.02.56-8.21-.27-16.45.38-24.65 1.34 8.59-.04 17.35.77 25.99-3.44-.42-6.92-.29-10.38-.19.14-34.8.02-69.6.03-104.4-.07-5.74 1.21-11.71 4.51-16.5Z"/><path fill="#fff" d="M47.19 218.27c5.45-14.04 22.43-20.06 36.39-18.1 3.37 3.59 7.46 6.36 11.01 9.73-11.14.03-24.08-1.61-32.86 6.84-8.06 6.43-6.84 20.36 1.93 25.58 6.15 3.52 13.34 5.05 20.33 5.71 38.01.02 76.01.05 114.02-.03 8.15-.51 16.57-2.74 23.15-7.75 7.75-6.78 5.89-20.4-2.6-25.74-8.79-6.02-19.88-4.57-29.94-4.78 2.78-3.55 6.76-6.16 9.79-9.59 11.32-1.74 24.05 1.85 31.89 10.57 9.31 9.62 8.85 26.66-.5 36.09-8.61 8.46-21.09 11.37-32.77 12.18-35.35.05-70.69 0-106.03.02-12.59.36-25.85-2.11-36.12-9.78-9.04-7.16-11.44-20.41-7.69-30.95Z"/></svg>